# xmcd
# 
# Track frame offsets:
#     150
#     16781
#     29572
#     59054
#     83466
#     115290
#     144827
#     156874
#     170161
#     186197
#     213121
#     243728
#     265933
#     281700
#     286232
#     299653
#     308508
#     319517
# 
# Disc length: 4404
# 
# Revision: 1
# Processed by: cddbd v1.5.2PL0 Copyright (c) Steve Scherf et al.
# Submitted via: fre:ac v1.1beta1pre3
# 
DISCID=09113212
DTITLE=Gagnepain et Dayez - Fauré - L'oeuvre Pour Violoncelle Et Piano 
DYEAR=2006
DGENRE=Chamber Music
TTITLE0=Romance, Op.69
TTITLE1=Vocalise - Etude
TTITLE2=Elégie, Op.24
TTITLE3=Sonate Op.109 - I Allegro
TTITLE4=Sonate Op.109 - Ii Andante
TTITLE5=Sonate Op.109 - Iii Allegro Commodo
TTITLE6=Serénade Op.98
TTITLE7=Papillon, Op.77
TTITLE8=Sicilienne, Op.78
TTITLE9=Sonate Op.117 - I Allegro
TTITLE10=Sonate Op.117 - Ii Andante
TTITLE11=Sonate Op.117 - Iii Allegro Vivo
TTITLE12=Berceuse Op.16
TTITLE13=Morceau De Lecture
TTITLE14=Après Un Rêve, Op.7
TTITLE15=Romances Sans Parole, Op.17 - 1
TTITLE16=Romances Sans Parole, Op.17 - 2
TTITLE17=Romances Sans Parole, Op.17 - 3
EXTD=1902  Erard piano
EXTT0=
EXTT1=
EXTT2=
EXTT3=
EXTT4=
EXTT5=
EXTT6=
EXTT7=
EXTT8=
EXTT9=
EXTT10=
EXTT11=
EXTT12=
EXTT13=
EXTT14=
EXTT15=
EXTT16=
EXTT17=
PLAYORDER=
